<svg id="Layer_1" data-name="Layer 1" xmlns="http://www.w3.org/2000/svg" viewBox="0 0 23.39 12.57"><defs><style>.cls-1{fill:#fff;}</style></defs><title>arrow</title><rect class="cls-1" x="9.5" y="13.3" width="15.83" height="0.4" transform="translate(-4.77 8.96) rotate(-44.54)"/><path d="M22.91,7.3a.5.5,0,0,0-.35.15L11.28,18.55a.5.5,0,0,0,0,.71l.28.29a.51.51,0,0,0,.36.15.49.49,0,0,0,.35-.15L23.55,8.45a.5.5,0,0,0,0-.71l-.28-.29a.51.51,0,0,0-.36-.15Z" transform="translate(-0.31 -7.13)"/><polygon class="cls-1" points="0.5 0.78 0.78 0.5 11.89 11.78 11.6 12.06 0.5 0.78"/><path d="M1.09,7.13a.52.52,0,0,0-.35.14l-.28.28a.5.5,0,0,0,0,.71l11.1,11.28a.51.51,0,0,0,.36.15.46.46,0,0,0,.35-.14l.28-.28a.5.5,0,0,0,0-.71L1.45,7.28a.51.51,0,0,0-.36-.15Z" transform="translate(-0.31 -7.13)"/></svg>